<svg width="315" height="70" viewBox="0 0 315 70" fill="none" xmlns="http://www.w3.org/2000/svg">
<g filter="url(#filter0_d)">
<path d="M95.394 19.648C95.49 20.192 95.554 20.576 95.586 20.8C95.65 20.992 95.682 21.264 95.682 21.616C95.682 22.672 95.442 23.664 94.962 24.592C94.514 25.488 93.89 26.128 93.09 26.512C92.45 25.648 91.666 24.912 90.738 24.304C89.81 23.664 88.786 23.152 87.666 22.768C86.578 22.352 85.442 22.048 84.258 21.856C83.074 21.664 81.922 21.568 80.802 21.568C79.682 21.568 78.626 21.664 77.634 21.856C76.674 22.016 75.81 22.256 75.042 22.576C74.306 22.864 73.714 23.232 73.266 23.68C72.85 24.128 72.642 24.64 72.642 25.216C72.738 25.92 73.17 26.64 73.938 27.376C74.706 28.08 75.65 28.784 76.77 29.488C77.89 30.16 79.122 30.832 80.466 31.504C81.842 32.176 83.186 32.816 84.498 33.424C86.13 34.192 87.538 34.912 88.722 35.584C89.906 36.224 90.882 36.944 91.65 37.744C92.418 38.512 92.994 39.392 93.378 40.384C93.762 41.376 93.954 42.576 93.954 43.984C93.954 45.616 93.682 47.152 93.138 48.592C92.594 50 91.794 51.232 90.738 52.288C89.714 53.344 88.466 54.16 86.994 54.736C85.522 55.344 83.874 55.648 82.05 55.648C80.258 55.648 78.322 55.376 76.242 54.832C74.162 54.288 72.21 53.536 70.386 52.576C68.594 51.648 67.09 50.576 65.874 49.36C64.69 48.112 64.098 46.8 64.098 45.424C64.098 44.784 64.274 43.968 64.626 42.976C65.01 41.984 65.682 40.944 66.642 39.856C66.738 40.816 67.25 41.952 68.178 43.264C69.138 44.576 70.562 45.792 72.45 46.912C74.21 47.936 76.018 48.688 77.874 49.168C79.762 49.616 81.522 49.84 83.154 49.84C84.946 49.84 86.402 49.616 87.522 49.168C88.642 48.72 89.522 48.192 90.162 47.584C90.802 46.944 91.25 46.304 91.506 45.664C91.762 45.024 91.906 44.512 91.938 44.128C91.906 43.488 91.602 42.88 91.026 42.304C90.482 41.696 89.73 41.12 88.77 40.576C87.842 40 86.754 39.424 85.506 38.848C84.258 38.272 82.962 37.696 81.618 37.12C79.602 36.224 77.858 35.392 76.386 34.624C74.946 33.824 73.746 33.024 72.786 32.224C71.858 31.392 71.17 30.528 70.722 29.632C70.306 28.736 70.098 27.712 70.098 26.56C70.098 24.768 70.642 23.072 71.73 21.472C72.818 19.872 74.386 18.656 76.434 17.824C77.458 17.376 78.546 17.056 79.698 16.864C80.882 16.672 82.034 16.576 83.154 16.576C85.266 16.576 87.33 16.864 89.346 17.44C91.362 18.016 93.378 18.752 95.394 19.648ZM114.793 32.128C114.665 34.112 114.313 35.824 113.737 37.264C113.161 38.672 112.329 39.92 111.241 41.008C110.185 42.064 108.889 43.024 107.353 43.888C105.817 44.752 104.025 45.584 101.977 46.384C101.977 46.576 101.961 46.784 101.929 47.008C101.929 47.2 101.929 47.408 101.929 47.632C101.929 48.048 101.961 48.48 102.025 48.928C102.089 49.376 102.201 49.792 102.361 50.176C102.521 50.56 102.745 50.88 103.033 51.136C103.321 51.36 103.689 51.472 104.137 51.472C105.001 51.472 105.849 51.28 106.681 50.896C107.513 50.512 108.297 50.048 109.033 49.504C109.801 48.928 110.505 48.32 111.145 47.68C111.817 47.008 112.409 46.4 112.921 45.856C113.241 46.144 113.513 46.416 113.737 46.672C112.297 48.592 110.713 50.192 108.985 51.472C107.289 52.72 105.673 53.52 104.137 53.872C101.929 53.616 100.201 52.816 98.9531 51.472C97.7371 50.096 97.1291 48.448 97.1291 46.528C97.1291 45.216 97.3051 43.888 97.6571 42.544C98.0411 41.168 98.5531 39.856 99.1931 38.608C99.8651 37.328 100.633 36.128 101.497 35.008C102.393 33.888 103.337 32.912 104.329 32.08C105.353 31.248 106.393 30.592 107.449 30.112C108.537 29.632 109.609 29.392 110.665 29.392C112.137 29.584 113.513 30.496 114.793 32.128ZM111.481 33.712C110.617 33.84 109.721 34.192 108.793 34.768C107.865 35.344 106.985 36.112 106.153 37.072C105.353 38.032 104.617 39.152 103.945 40.432C103.273 41.712 102.745 43.088 102.361 44.56C104.921 43.28 107.049 41.712 108.745 39.856C110.441 37.968 111.353 35.92 111.481 33.712ZM115.863 51.04C116.023 50.112 116.295 48.896 116.679 47.392C117.095 45.856 117.575 44.24 118.119 42.544C118.663 40.816 119.239 39.088 119.847 37.36C120.455 35.632 121.047 34.08 121.623 32.704C122.039 31.712 122.407 30.944 122.727 30.4C123.047 29.824 123.399 29.344 123.783 28.96C124.231 29.024 124.695 29.136 125.175 29.296C125.655 29.456 126.119 29.648 126.567 29.872C127.015 30.096 127.415 30.336 127.767 30.592C128.119 30.816 128.391 31.04 128.583 31.264C127.719 32.288 126.951 33.456 126.279 34.768C125.639 36.08 124.983 37.76 124.311 39.808C126.039 38.272 127.559 36.8 128.871 35.392C130.215 33.984 131.463 32.416 132.615 30.688C132.807 30.528 133.143 30.448 133.623 30.448C134.071 30.448 134.503 30.528 134.919 30.688C135.335 30.816 135.623 31.008 135.783 31.264C135.207 32.8 134.919 34.32 134.919 35.824C134.919 37.232 135.127 38.288 135.543 38.992C135.511 39.184 135.287 39.552 134.871 40.096C134.487 40.64 134.055 41.152 133.575 41.632C132.711 41.184 131.943 40.576 131.271 39.808C130.599 39.008 130.103 38.144 129.783 37.216C128.279 38.272 126.999 39.312 125.943 40.336C124.887 41.328 123.975 42.448 123.207 43.696C122.471 44.912 121.831 46.32 121.287 47.92C120.775 49.52 120.279 51.424 119.799 53.632C119.511 53.6 119.159 53.488 118.743 53.296C118.359 53.136 117.959 52.928 117.543 52.672C117.159 52.416 116.807 52.144 116.487 51.856C116.167 51.568 115.959 51.296 115.863 51.04ZM139.015 35.008C139.015 34.432 139.047 33.888 139.111 33.376C139.207 32.864 139.383 32.432 139.639 32.08C139.895 31.696 140.247 31.408 140.695 31.216C141.143 30.992 141.735 30.88 142.471 30.88C142.919 30.88 143.415 30.928 143.959 31.024C144.535 31.12 144.951 31.296 145.207 31.552C145.079 32.096 144.967 32.576 144.871 32.992C144.807 33.408 144.743 33.872 144.679 34.384C144.647 34.864 144.615 35.456 144.583 36.16C144.551 36.832 144.519 37.712 144.487 38.8C144.423 40.976 144.311 42.928 144.151 44.656C144.023 46.352 143.703 48.048 143.191 49.744C143.191 49.872 143.239 49.936 143.335 49.936C143.815 49.584 144.359 49.072 144.967 48.4C145.575 47.728 146.215 46.976 146.887 46.144C147.559 45.28 148.231 44.368 148.903 43.408C149.575 42.448 150.199 41.504 150.775 40.576C151.543 39.232 152.391 37.552 153.319 35.536C154.247 33.52 155.015 31.36 155.623 29.056C155.815 29.056 156.055 29.104 156.343 29.2C156.663 29.264 156.967 29.36 157.255 29.488C157.575 29.584 157.847 29.696 158.071 29.824C158.327 29.952 158.503 30.064 158.599 30.16C158.535 31.536 158.199 32.944 157.591 34.384C157.015 35.824 156.311 37.216 155.479 38.56C154.647 39.904 153.767 41.168 152.839 42.352C151.911 43.536 151.063 44.56 150.295 45.424C148.759 47.216 147.207 48.816 145.639 50.224C144.103 51.632 142.263 52.992 140.119 54.304C139.287 53.984 138.631 53.552 138.151 53.008C137.671 52.496 137.431 51.952 137.431 51.376C137.431 50.992 137.511 50.56 137.671 50.08C137.863 49.568 138.071 48.928 138.295 48.16C138.519 47.36 138.711 46.368 138.871 45.184C139.063 44 139.159 42.496 139.159 40.672C139.159 39.616 139.127 38.56 139.063 37.504C139.031 36.416 139.015 35.584 139.015 35.008ZM175.074 32.128C174.946 34.112 174.594 35.824 174.018 37.264C173.442 38.672 172.61 39.92 171.522 41.008C170.466 42.064 169.17 43.024 167.634 43.888C166.098 44.752 164.306 45.584 162.258 46.384C162.258 46.576 162.242 46.784 162.21 47.008C162.21 47.2 162.21 47.408 162.21 47.632C162.21 48.048 162.242 48.48 162.306 48.928C162.37 49.376 162.482 49.792 162.642 50.176C162.802 50.56 163.026 50.88 163.314 51.136C163.602 51.36 163.97 51.472 164.418 51.472C165.282 51.472 166.13 51.28 166.962 50.896C167.794 50.512 168.578 50.048 169.314 49.504C170.082 48.928 170.786 48.32 171.426 47.68C172.098 47.008 172.69 46.4 173.202 45.856C173.522 46.144 173.794 46.416 174.018 46.672C172.578 48.592 170.994 50.192 169.266 51.472C167.57 52.72 165.954 53.52 164.418 53.872C162.21 53.616 160.482 52.816 159.234 51.472C158.018 50.096 157.41 48.448 157.41 46.528C157.41 45.216 157.586 43.888 157.938 42.544C158.322 41.168 158.834 39.856 159.474 38.608C160.146 37.328 160.914 36.128 161.778 35.008C162.674 33.888 163.618 32.912 164.61 32.08C165.634 31.248 166.674 30.592 167.73 30.112C168.818 29.632 169.89 29.392 170.946 29.392C172.418 29.584 173.794 30.496 175.074 32.128ZM171.762 33.712C170.898 33.84 170.002 34.192 169.074 34.768C168.146 35.344 167.266 36.112 166.434 37.072C165.634 38.032 164.898 39.152 164.226 40.432C163.554 41.712 163.026 43.088 162.642 44.56C165.202 43.28 167.33 41.712 169.026 39.856C170.722 37.968 171.634 35.92 171.762 33.712ZM176.145 51.04C176.305 50.112 176.577 48.896 176.961 47.392C177.377 45.856 177.857 44.24 178.401 42.544C178.945 40.816 179.521 39.088 180.129 37.36C180.737 35.632 181.329 34.08 181.905 32.704C182.321 31.712 182.689 30.944 183.009 30.4C183.329 29.824 183.681 29.344 184.065 28.96C184.513 29.024 184.977 29.136 185.457 29.296C185.937 29.456 186.401 29.648 186.849 29.872C187.297 30.096 187.697 30.336 188.049 30.592C188.401 30.816 188.673 31.04 188.865 31.264C188.001 32.288 187.233 33.456 186.561 34.768C185.921 36.08 185.265 37.76 184.593 39.808C186.321 38.272 187.841 36.8 189.153 35.392C190.497 33.984 191.745 32.416 192.897 30.688C193.089 30.528 193.425 30.448 193.905 30.448C194.353 30.448 194.785 30.528 195.201 30.688C195.617 30.816 195.905 31.008 196.065 31.264C195.489 32.8 195.201 34.32 195.201 35.824C195.201 37.232 195.409 38.288 195.825 38.992C195.793 39.184 195.569 39.552 195.153 40.096C194.769 40.64 194.337 41.152 193.857 41.632C192.993 41.184 192.225 40.576 191.553 39.808C190.881 39.008 190.385 38.144 190.065 37.216C188.561 38.272 187.281 39.312 186.225 40.336C185.169 41.328 184.257 42.448 183.489 43.696C182.753 44.912 182.113 46.32 181.569 47.92C181.057 49.52 180.561 51.424 180.081 53.632C179.793 53.6 179.441 53.488 179.025 53.296C178.641 53.136 178.241 52.928 177.825 52.672C177.441 52.416 177.089 52.144 176.769 51.856C176.449 51.568 176.241 51.296 176.145 51.04ZM196.608 48.928C196.608 47.52 196.944 45.552 197.616 43.024C198.288 40.464 199.232 37.488 200.448 34.096C202.432 28.688 204.288 24.192 206.016 20.608C207.776 16.992 209.488 14.176 211.152 12.16C211.536 12.224 212 12.384 212.544 12.64C213.12 12.896 213.68 13.184 214.224 13.504C214.768 13.792 215.248 14.096 215.664 14.416C216.112 14.736 216.4 14.992 216.528 15.184C214.032 18.128 211.84 21.296 209.952 24.688C208.064 28.08 206.336 31.968 204.768 36.352C203.424 40.128 202.4 43.536 201.696 46.576C200.992 49.584 200.64 52.096 200.64 54.112C200.64 54.656 200.64 54.992 200.64 55.12C200.64 55.248 200.656 55.376 200.688 55.504C200.24 55.44 199.856 55.328 199.536 55.168C199.216 55.008 199.008 54.816 198.912 54.592C198.848 54.432 198.672 54.192 198.384 53.872C198.096 53.584 197.84 53.36 197.616 53.2C197.328 53.008 197.088 52.512 196.896 51.712C196.704 50.88 196.608 49.952 196.608 48.928ZM224.996 32.128C224.868 34.112 224.516 35.824 223.94 37.264C223.364 38.672 222.532 39.92 221.444 41.008C220.388 42.064 219.092 43.024 217.556 43.888C216.02 44.752 214.228 45.584 212.18 46.384C212.18 46.576 212.164 46.784 212.132 47.008C212.132 47.2 212.132 47.408 212.132 47.632C212.132 48.048 212.164 48.48 212.228 48.928C212.292 49.376 212.404 49.792 212.564 50.176C212.724 50.56 212.948 50.88 213.236 51.136C213.524 51.36 213.892 51.472 214.34 51.472C215.204 51.472 216.052 51.28 216.884 50.896C217.716 50.512 218.5 50.048 219.236 49.504C220.004 48.928 220.708 48.32 221.348 47.68C222.02 47.008 222.612 46.4 223.124 45.856C223.444 46.144 223.716 46.416 223.94 46.672C222.5 48.592 220.916 50.192 219.188 51.472C217.492 52.72 215.876 53.52 214.34 53.872C212.132 53.616 210.404 52.816 209.156 51.472C207.94 50.096 207.332 48.448 207.332 46.528C207.332 45.216 207.508 43.888 207.86 42.544C208.244 41.168 208.756 39.856 209.396 38.608C210.068 37.328 210.836 36.128 211.7 35.008C212.596 33.888 213.54 32.912 214.532 32.08C215.556 31.248 216.596 30.592 217.652 30.112C218.74 29.632 219.812 29.392 220.868 29.392C222.34 29.584 223.716 30.496 224.996 32.128ZM221.684 33.712C220.82 33.84 219.924 34.192 218.996 34.768C218.068 35.344 217.188 36.112 216.356 37.072C215.556 38.032 214.82 39.152 214.148 40.432C213.476 41.712 212.948 43.088 212.564 44.56C215.124 43.28 217.252 41.712 218.948 39.856C220.644 37.968 221.556 35.92 221.684 33.712ZM243.779 32.896C243.747 33.504 243.635 34.144 243.443 34.816C243.283 35.456 243.075 36.048 242.819 36.592C242.563 37.104 242.291 37.536 242.003 37.888C241.715 38.24 241.443 38.416 241.187 38.416C240.835 38.384 240.627 38.144 240.563 37.696C240.563 37.6 240.595 37.456 240.659 37.264C240.755 37.04 240.851 36.8 240.947 36.544C241.043 36.288 241.123 36.032 241.187 35.776C241.283 35.52 241.331 35.296 241.331 35.104C241.331 34.656 241.219 34.288 240.995 34C240.803 33.68 240.531 33.52 240.179 33.52C238.899 33.52 237.923 34.32 237.251 35.92C236.579 37.52 236.243 39.872 236.243 42.976C236.243 43.296 236.259 43.488 236.291 43.552C236.963 43.52 237.555 43.504 238.067 43.504C238.611 43.472 239.139 43.456 239.651 43.456C239.683 43.52 239.699 43.648 239.699 43.84C239.699 44.128 239.635 44.336 239.507 44.464C238.771 44.624 238.179 44.768 237.731 44.896C237.315 44.992 236.995 45.088 236.771 45.184C236.547 45.28 236.403 45.392 236.339 45.52C236.307 45.616 236.291 45.76 236.291 45.952C236.291 46.208 236.291 46.464 236.291 46.72C236.323 46.976 236.339 47.296 236.339 47.68C236.339 50.368 235.603 52.528 234.131 54.16C232.691 55.792 230.675 56.736 228.083 56.992C227.635 56.96 227.171 56.832 226.691 56.608C226.211 56.384 225.747 56.096 225.299 55.744C224.883 55.392 224.515 54.992 224.195 54.544C223.875 54.128 223.651 53.696 223.523 53.248C223.523 52.032 223.779 50.88 224.291 49.792C224.803 48.672 225.491 47.696 226.355 46.864C227.251 46 228.291 45.312 229.475 44.8C230.691 44.256 232.003 43.936 233.411 43.84C233.411 43.04 233.331 42.256 233.171 41.488C233.011 40.72 232.835 39.984 232.643 39.28C232.483 38.544 232.323 37.84 232.163 37.168C232.003 36.464 231.923 35.776 231.923 35.104C231.923 34.24 232.099 33.392 232.451 32.56C232.803 31.696 233.267 30.912 233.843 30.208C234.419 29.472 235.091 28.848 235.859 28.336C236.627 27.824 237.427 27.472 238.259 27.28C238.611 27.376 239.075 27.664 239.651 28.144C240.259 28.592 240.851 29.104 241.427 29.68C242.003 30.256 242.515 30.848 242.963 31.456C243.411 32.032 243.683 32.512 243.779 32.896ZM227.939 54.784C228.707 54.464 229.427 54 230.099 53.392C230.803 52.784 231.411 52.096 231.923 51.328C232.435 50.56 232.835 49.744 233.123 48.88C233.443 48.016 233.603 47.168 233.603 46.336C232.963 46.432 232.259 46.736 231.491 47.248C230.723 47.728 230.003 48.32 229.331 49.024C228.659 49.696 228.099 50.4 227.651 51.136C227.203 51.872 226.979 52.512 226.979 53.056C226.979 53.76 227.299 54.336 227.939 54.784ZM260.372 32.896C260.34 33.504 260.228 34.144 260.036 34.816C259.876 35.456 259.668 36.048 259.412 36.592C259.156 37.104 258.884 37.536 258.596 37.888C258.308 38.24 258.036 38.416 257.78 38.416C257.428 38.384 257.22 38.144 257.156 37.696C257.156 37.6 257.188 37.456 257.252 37.264C257.348 37.04 257.444 36.8 257.54 36.544C257.636 36.288 257.716 36.032 257.78 35.776C257.876 35.52 257.924 35.296 257.924 35.104C257.924 34.656 257.812 34.288 257.588 34C257.396 33.68 257.124 33.52 256.772 33.52C255.492 33.52 254.516 34.32 253.844 35.92C253.172 37.52 252.836 39.872 252.836 42.976C252.836 43.296 252.852 43.488 252.884 43.552C253.556 43.52 254.148 43.504 254.66 43.504C255.204 43.472 255.732 43.456 256.244 43.456C256.276 43.52 256.292 43.648 256.292 43.84C256.292 44.128 256.228 44.336 256.1 44.464C255.364 44.624 254.772 44.768 254.324 44.896C253.908 44.992 253.588 45.088 253.364 45.184C253.14 45.28 252.996 45.392 252.932 45.52C252.9 45.616 252.884 45.76 252.884 45.952C252.884 46.208 252.884 46.464 252.884 46.72C252.916 46.976 252.932 47.296 252.932 47.68C252.932 50.368 252.196 52.528 250.724 54.16C249.284 55.792 247.268 56.736 244.676 56.992C244.228 56.96 243.764 56.832 243.284 56.608C242.804 56.384 242.34 56.096 241.892 55.744C241.476 55.392 241.108 54.992 240.788 54.544C240.468 54.128 240.244 53.696 240.116 53.248C240.116 52.032 240.372 50.88 240.884 49.792C241.396 48.672 242.084 47.696 242.948 46.864C243.844 46 244.884 45.312 246.068 44.8C247.284 44.256 248.596 43.936 250.004 43.84C250.004 43.04 249.924 42.256 249.764 41.488C249.604 40.72 249.428 39.984 249.236 39.28C249.076 38.544 248.916 37.84 248.756 37.168C248.596 36.464 248.516 35.776 248.516 35.104C248.516 34.24 248.692 33.392 249.044 32.56C249.396 31.696 249.86 30.912 250.436 30.208C251.012 29.472 251.684 28.848 252.452 28.336C253.22 27.824 254.02 27.472 254.852 27.28C255.204 27.376 255.668 27.664 256.244 28.144C256.852 28.592 257.444 29.104 258.02 29.68C258.596 30.256 259.108 30.848 259.556 31.456C260.004 32.032 260.276 32.512 260.372 32.896ZM244.532 54.784C245.3 54.464 246.02 54 246.692 53.392C247.396 52.784 248.004 52.096 248.516 51.328C249.028 50.56 249.428 49.744 249.716 48.88C250.036 48.016 250.196 47.168 250.196 46.336C249.556 46.432 248.852 46.736 248.084 47.248C247.316 47.728 246.596 48.32 245.924 49.024C245.252 49.696 244.692 50.4 244.244 51.136C243.796 51.872 243.572 52.512 243.572 53.056C243.572 53.76 243.892 54.336 244.532 54.784Z" fill="white"/>
</g>
<defs>
<filter id="filter0_d" x="60.098" y="12.16" width="204.274" height="52.832" filterUnits="userSpaceOnUse" color-interpolation-filters="sRGB">
<feFlood flood-opacity="0" result="BackgroundImageFix"/>
<feColorMatrix in="SourceAlpha" type="matrix" values="0 0 0 0 0 0 0 0 0 0 0 0 0 0 0 0 0 0 127 0"/>
<feOffset dy="4"/>
<feGaussianBlur stdDeviation="2"/>
<feColorMatrix type="matrix" values="0 0 0 0 0 0 0 0 0 0 0 0 0 0 0 0 0 0 0.25 0"/>
<feBlend mode="normal" in2="BackgroundImageFix" result="effect1_dropShadow"/>
<feBlend mode="normal" in="SourceGraphic" in2="effect1_dropShadow" result="shape"/>
</filter>
</defs>
</svg>
