<svg width="206" height="70" viewBox="0 0 206 70" fill="none" xmlns="http://www.w3.org/2000/svg">
<g filter="url(#filter0_d)">
<path d="M36.394 19.648C36.49 20.192 36.554 20.576 36.586 20.8C36.65 20.992 36.682 21.264 36.682 21.616C36.682 22.672 36.442 23.664 35.962 24.592C35.514 25.488 34.89 26.128 34.09 26.512C33.45 25.648 32.666 24.912 31.738 24.304C30.81 23.664 29.786 23.152 28.666 22.768C27.578 22.352 26.442 22.048 25.258 21.856C24.074 21.664 22.922 21.568 21.802 21.568C20.682 21.568 19.626 21.664 18.634 21.856C17.674 22.016 16.81 22.256 16.042 22.576C15.306 22.864 14.714 23.232 14.266 23.68C13.85 24.128 13.642 24.64 13.642 25.216C13.738 25.92 14.17 26.64 14.938 27.376C15.706 28.08 16.65 28.784 17.77 29.488C18.89 30.16 20.122 30.832 21.466 31.504C22.842 32.176 24.186 32.816 25.498 33.424C27.13 34.192 28.538 34.912 29.722 35.584C30.906 36.224 31.882 36.944 32.65 37.744C33.418 38.512 33.994 39.392 34.378 40.384C34.762 41.376 34.954 42.576 34.954 43.984C34.954 45.616 34.682 47.152 34.138 48.592C33.594 50 32.794 51.232 31.738 52.288C30.714 53.344 29.466 54.16 27.994 54.736C26.522 55.344 24.874 55.648 23.05 55.648C21.258 55.648 19.322 55.376 17.242 54.832C15.162 54.288 13.21 53.536 11.386 52.576C9.594 51.648 8.09 50.576 6.874 49.36C5.69 48.112 5.098 46.8 5.098 45.424C5.098 44.784 5.274 43.968 5.626 42.976C6.01 41.984 6.682 40.944 7.642 39.856C7.738 40.816 8.25 41.952 9.178 43.264C10.138 44.576 11.562 45.792 13.45 46.912C15.21 47.936 17.018 48.688 18.874 49.168C20.762 49.616 22.522 49.84 24.154 49.84C25.946 49.84 27.402 49.616 28.522 49.168C29.642 48.72 30.522 48.192 31.162 47.584C31.802 46.944 32.25 46.304 32.506 45.664C32.762 45.024 32.906 44.512 32.938 44.128C32.906 43.488 32.602 42.88 32.026 42.304C31.482 41.696 30.73 41.12 29.77 40.576C28.842 40 27.754 39.424 26.506 38.848C25.258 38.272 23.962 37.696 22.618 37.12C20.602 36.224 18.858 35.392 17.386 34.624C15.946 33.824 14.746 33.024 13.786 32.224C12.858 31.392 12.17 30.528 11.722 29.632C11.306 28.736 11.098 27.712 11.098 26.56C11.098 24.768 11.642 23.072 12.73 21.472C13.818 19.872 15.386 18.656 17.434 17.824C18.458 17.376 19.546 17.056 20.698 16.864C21.882 16.672 23.034 16.576 24.154 16.576C26.266 16.576 28.33 16.864 30.346 17.44C32.362 18.016 34.378 18.752 36.394 19.648ZM55.7931 32.128C55.6651 34.112 55.3131 35.824 54.7371 37.264C54.1611 38.672 53.3291 39.92 52.2411 41.008C51.1851 42.064 49.8891 43.024 48.3531 43.888C46.8171 44.752 45.0251 45.584 42.9771 46.384C42.9771 46.576 42.9611 46.784 42.9291 47.008C42.9291 47.2 42.9291 47.408 42.9291 47.632C42.9291 48.048 42.9611 48.48 43.0251 48.928C43.0891 49.376 43.2011 49.792 43.3611 50.176C43.5211 50.56 43.7451 50.88 44.0331 51.136C44.3211 51.36 44.6891 51.472 45.1371 51.472C46.0011 51.472 46.8491 51.28 47.6811 50.896C48.5131 50.512 49.2971 50.048 50.0331 49.504C50.8011 48.928 51.5051 48.32 52.1451 47.68C52.8171 47.008 53.4091 46.4 53.9211 45.856C54.2411 46.144 54.5131 46.416 54.7371 46.672C53.2971 48.592 51.7131 50.192 49.9851 51.472C48.2891 52.72 46.6731 53.52 45.1371 53.872C42.9291 53.616 41.2011 52.816 39.9531 51.472C38.7371 50.096 38.1291 48.448 38.1291 46.528C38.1291 45.216 38.3051 43.888 38.6571 42.544C39.0411 41.168 39.5531 39.856 40.1931 38.608C40.8651 37.328 41.6331 36.128 42.4971 35.008C43.3931 33.888 44.3371 32.912 45.3291 32.08C46.3531 31.248 47.3931 30.592 48.4491 30.112C49.5371 29.632 50.6091 29.392 51.6651 29.392C53.1371 29.584 54.5131 30.496 55.7931 32.128ZM52.4811 33.712C51.6171 33.84 50.7211 34.192 49.7931 34.768C48.8651 35.344 47.9851 36.112 47.1531 37.072C46.3531 38.032 45.6171 39.152 44.9451 40.432C44.2731 41.712 43.7451 43.088 43.3611 44.56C45.9211 43.28 48.0491 41.712 49.7451 39.856C51.4411 37.968 52.3531 35.92 52.4811 33.712ZM56.8634 51.04C57.0234 50.112 57.2954 48.896 57.6794 47.392C58.0954 45.856 58.5754 44.24 59.1194 42.544C59.6634 40.816 60.2394 39.088 60.8474 37.36C61.4554 35.632 62.0474 34.08 62.6234 32.704C63.0394 31.712 63.4074 30.944 63.7274 30.4C64.0474 29.824 64.3994 29.344 64.7834 28.96C65.2314 29.024 65.6954 29.136 66.1754 29.296C66.6554 29.456 67.1194 29.648 67.5674 29.872C68.0154 30.096 68.4154 30.336 68.7674 30.592C69.1194 30.816 69.3914 31.04 69.5834 31.264C68.7194 32.288 67.9514 33.456 67.2794 34.768C66.6394 36.08 65.9834 37.76 65.3114 39.808C67.0394 38.272 68.5594 36.8 69.8714 35.392C71.2154 33.984 72.4634 32.416 73.6154 30.688C73.8074 30.528 74.1434 30.448 74.6234 30.448C75.0714 30.448 75.5034 30.528 75.9194 30.688C76.3354 30.816 76.6234 31.008 76.7834 31.264C76.2074 32.8 75.9194 34.32 75.9194 35.824C75.9194 37.232 76.1274 38.288 76.5434 38.992C76.5114 39.184 76.2874 39.552 75.8714 40.096C75.4874 40.64 75.0554 41.152 74.5754 41.632C73.7114 41.184 72.9434 40.576 72.2714 39.808C71.5994 39.008 71.1034 38.144 70.7834 37.216C69.2794 38.272 67.9994 39.312 66.9434 40.336C65.8874 41.328 64.9754 42.448 64.2074 43.696C63.4714 44.912 62.8314 46.32 62.2874 47.92C61.7754 49.52 61.2794 51.424 60.7994 53.632C60.5114 53.6 60.1594 53.488 59.7434 53.296C59.3594 53.136 58.9594 52.928 58.5434 52.672C58.1594 52.416 57.8074 52.144 57.4874 51.856C57.1674 51.568 56.9594 51.296 56.8634 51.04ZM80.0148 35.008C80.0148 34.432 80.0468 33.888 80.1108 33.376C80.2068 32.864 80.3828 32.432 80.6388 32.08C80.8948 31.696 81.2468 31.408 81.6948 31.216C82.1428 30.992 82.7348 30.88 83.4708 30.88C83.9188 30.88 84.4148 30.928 84.9588 31.024C85.5348 31.12 85.9508 31.296 86.2068 31.552C86.0788 32.096 85.9668 32.576 85.8708 32.992C85.8068 33.408 85.7428 33.872 85.6788 34.384C85.6468 34.864 85.6148 35.456 85.5828 36.16C85.5508 36.832 85.5188 37.712 85.4868 38.8C85.4227 40.976 85.3108 42.928 85.1508 44.656C85.0228 46.352 84.7028 48.048 84.1908 49.744C84.1908 49.872 84.2388 49.936 84.3348 49.936C84.8148 49.584 85.3588 49.072 85.9668 48.4C86.5748 47.728 87.2148 46.976 87.8868 46.144C88.5588 45.28 89.2308 44.368 89.9028 43.408C90.5748 42.448 91.1988 41.504 91.7748 40.576C92.5428 39.232 93.3908 37.552 94.3188 35.536C95.2468 33.52 96.0148 31.36 96.6228 29.056C96.8148 29.056 97.0548 29.104 97.3428 29.2C97.6628 29.264 97.9668 29.36 98.2548 29.488C98.5748 29.584 98.8468 29.696 99.0708 29.824C99.3268 29.952 99.5028 30.064 99.5988 30.16C99.5348 31.536 99.1988 32.944 98.5908 34.384C98.0148 35.824 97.3108 37.216 96.4788 38.56C95.6468 39.904 94.7668 41.168 93.8388 42.352C92.9108 43.536 92.0628 44.56 91.2948 45.424C89.7588 47.216 88.2068 48.816 86.6388 50.224C85.1028 51.632 83.2628 52.992 81.1188 54.304C80.2868 53.984 79.6308 53.552 79.1508 53.008C78.6708 52.496 78.4308 51.952 78.4308 51.376C78.4308 50.992 78.5108 50.56 78.6708 50.08C78.8628 49.568 79.0708 48.928 79.2948 48.16C79.5188 47.36 79.7108 46.368 79.8708 45.184C80.0628 44 80.1588 42.496 80.1588 40.672C80.1588 39.616 80.1268 38.56 80.0628 37.504C80.0308 36.416 80.0148 35.584 80.0148 35.008ZM116.074 32.128C115.946 34.112 115.594 35.824 115.018 37.264C114.442 38.672 113.61 39.92 112.522 41.008C111.466 42.064 110.17 43.024 108.634 43.888C107.098 44.752 105.306 45.584 103.258 46.384C103.258 46.576 103.242 46.784 103.21 47.008C103.21 47.2 103.21 47.408 103.21 47.632C103.21 48.048 103.242 48.48 103.306 48.928C103.37 49.376 103.482 49.792 103.642 50.176C103.802 50.56 104.026 50.88 104.314 51.136C104.602 51.36 104.97 51.472 105.418 51.472C106.282 51.472 107.13 51.28 107.962 50.896C108.794 50.512 109.578 50.048 110.314 49.504C111.082 48.928 111.786 48.32 112.426 47.68C113.098 47.008 113.69 46.4 114.202 45.856C114.522 46.144 114.794 46.416 115.018 46.672C113.578 48.592 111.994 50.192 110.266 51.472C108.57 52.72 106.954 53.52 105.418 53.872C103.21 53.616 101.482 52.816 100.234 51.472C99.0184 50.096 98.4104 48.448 98.4104 46.528C98.4104 45.216 98.5864 43.888 98.9384 42.544C99.3224 41.168 99.8344 39.856 100.474 38.608C101.146 37.328 101.914 36.128 102.778 35.008C103.674 33.888 104.618 32.912 105.61 32.08C106.634 31.248 107.674 30.592 108.73 30.112C109.818 29.632 110.89 29.392 111.946 29.392C113.418 29.584 114.794 30.496 116.074 32.128ZM112.762 33.712C111.898 33.84 111.002 34.192 110.074 34.768C109.146 35.344 108.266 36.112 107.434 37.072C106.634 38.032 105.898 39.152 105.226 40.432C104.554 41.712 104.026 43.088 103.642 44.56C106.202 43.28 108.33 41.712 110.026 39.856C111.722 37.968 112.634 35.92 112.762 33.712ZM117.145 51.04C117.305 50.112 117.577 48.896 117.961 47.392C118.377 45.856 118.857 44.24 119.401 42.544C119.945 40.816 120.521 39.088 121.129 37.36C121.737 35.632 122.329 34.08 122.905 32.704C123.321 31.712 123.689 30.944 124.009 30.4C124.329 29.824 124.681 29.344 125.065 28.96C125.513 29.024 125.977 29.136 126.457 29.296C126.937 29.456 127.401 29.648 127.849 29.872C128.297 30.096 128.697 30.336 129.049 30.592C129.401 30.816 129.673 31.04 129.865 31.264C129.001 32.288 128.233 33.456 127.561 34.768C126.921 36.08 126.265 37.76 125.593 39.808C127.321 38.272 128.841 36.8 130.153 35.392C131.497 33.984 132.745 32.416 133.897 30.688C134.089 30.528 134.425 30.448 134.905 30.448C135.353 30.448 135.785 30.528 136.201 30.688C136.617 30.816 136.905 31.008 137.065 31.264C136.489 32.8 136.201 34.32 136.201 35.824C136.201 37.232 136.409 38.288 136.825 38.992C136.793 39.184 136.569 39.552 136.153 40.096C135.769 40.64 135.337 41.152 134.857 41.632C133.993 41.184 133.225 40.576 132.553 39.808C131.881 39.008 131.385 38.144 131.065 37.216C129.561 38.272 128.281 39.312 127.225 40.336C126.169 41.328 125.257 42.448 124.489 43.696C123.753 44.912 123.113 46.32 122.569 47.92C122.057 49.52 121.561 51.424 121.081 53.632C120.793 53.6 120.441 53.488 120.025 53.296C119.641 53.136 119.241 52.928 118.825 52.672C118.441 52.416 118.089 52.144 117.769 51.856C117.449 51.568 117.241 51.296 117.145 51.04ZM137.608 48.928C137.608 47.52 137.944 45.552 138.616 43.024C139.288 40.464 140.232 37.488 141.448 34.096C143.432 28.688 145.288 24.192 147.016 20.608C148.776 16.992 150.488 14.176 152.152 12.16C152.536 12.224 153 12.384 153.544 12.64C154.12 12.896 154.68 13.184 155.224 13.504C155.768 13.792 156.248 14.096 156.664 14.416C157.112 14.736 157.4 14.992 157.528 15.184C155.032 18.128 152.84 21.296 150.952 24.688C149.064 28.08 147.336 31.968 145.768 36.352C144.424 40.128 143.4 43.536 142.696 46.576C141.992 49.584 141.64 52.096 141.64 54.112C141.64 54.656 141.64 54.992 141.64 55.12C141.64 55.248 141.656 55.376 141.688 55.504C141.24 55.44 140.856 55.328 140.536 55.168C140.216 55.008 140.008 54.816 139.912 54.592C139.848 54.432 139.672 54.192 139.384 53.872C139.096 53.584 138.84 53.36 138.616 53.2C138.328 53.008 138.088 52.512 137.896 51.712C137.704 50.88 137.608 49.952 137.608 48.928ZM165.996 32.128C165.868 34.112 165.516 35.824 164.94 37.264C164.364 38.672 163.532 39.92 162.444 41.008C161.388 42.064 160.092 43.024 158.556 43.888C157.02 44.752 155.228 45.584 153.18 46.384C153.18 46.576 153.164 46.784 153.132 47.008C153.132 47.2 153.132 47.408 153.132 47.632C153.132 48.048 153.164 48.48 153.228 48.928C153.292 49.376 153.404 49.792 153.564 50.176C153.724 50.56 153.948 50.88 154.236 51.136C154.524 51.36 154.892 51.472 155.34 51.472C156.204 51.472 157.052 51.28 157.884 50.896C158.716 50.512 159.5 50.048 160.236 49.504C161.004 48.928 161.708 48.32 162.348 47.68C163.02 47.008 163.612 46.4 164.124 45.856C164.444 46.144 164.716 46.416 164.94 46.672C163.5 48.592 161.916 50.192 160.188 51.472C158.492 52.72 156.876 53.52 155.34 53.872C153.132 53.616 151.404 52.816 150.156 51.472C148.94 50.096 148.332 48.448 148.332 46.528C148.332 45.216 148.508 43.888 148.86 42.544C149.244 41.168 149.756 39.856 150.396 38.608C151.068 37.328 151.836 36.128 152.7 35.008C153.596 33.888 154.54 32.912 155.532 32.08C156.556 31.248 157.596 30.592 158.652 30.112C159.74 29.632 160.812 29.392 161.868 29.392C163.34 29.584 164.716 30.496 165.996 32.128ZM162.684 33.712C161.82 33.84 160.924 34.192 159.996 34.768C159.068 35.344 158.188 36.112 157.356 37.072C156.556 38.032 155.82 39.152 155.148 40.432C154.476 41.712 153.948 43.088 153.564 44.56C156.124 43.28 158.252 41.712 159.948 39.856C161.644 37.968 162.556 35.92 162.684 33.712ZM184.779 32.896C184.747 33.504 184.635 34.144 184.443 34.816C184.283 35.456 184.075 36.048 183.819 36.592C183.563 37.104 183.291 37.536 183.003 37.888C182.715 38.24 182.443 38.416 182.187 38.416C181.835 38.384 181.627 38.144 181.563 37.696C181.563 37.6 181.595 37.456 181.659 37.264C181.755 37.04 181.851 36.8 181.947 36.544C182.043 36.288 182.123 36.032 182.187 35.776C182.283 35.52 182.331 35.296 182.331 35.104C182.331 34.656 182.219 34.288 181.995 34C181.803 33.68 181.531 33.52 181.179 33.52C179.899 33.52 178.923 34.32 178.251 35.92C177.579 37.52 177.243 39.872 177.243 42.976C177.243 43.296 177.259 43.488 177.291 43.552C177.963 43.52 178.555 43.504 179.067 43.504C179.611 43.472 180.139 43.456 180.651 43.456C180.683 43.52 180.699 43.648 180.699 43.84C180.699 44.128 180.635 44.336 180.507 44.464C179.771 44.624 179.179 44.768 178.731 44.896C178.315 44.992 177.995 45.088 177.771 45.184C177.547 45.28 177.403 45.392 177.339 45.52C177.307 45.616 177.291 45.76 177.291 45.952C177.291 46.208 177.291 46.464 177.291 46.72C177.323 46.976 177.339 47.296 177.339 47.68C177.339 50.368 176.603 52.528 175.131 54.16C173.691 55.792 171.675 56.736 169.083 56.992C168.635 56.96 168.171 56.832 167.691 56.608C167.211 56.384 166.747 56.096 166.299 55.744C165.883 55.392 165.515 54.992 165.195 54.544C164.875 54.128 164.651 53.696 164.523 53.248C164.523 52.032 164.779 50.88 165.291 49.792C165.803 48.672 166.491 47.696 167.355 46.864C168.251 46 169.291 45.312 170.475 44.8C171.691 44.256 173.003 43.936 174.411 43.84C174.411 43.04 174.331 42.256 174.171 41.488C174.011 40.72 173.835 39.984 173.643 39.28C173.483 38.544 173.323 37.84 173.163 37.168C173.003 36.464 172.923 35.776 172.923 35.104C172.923 34.24 173.099 33.392 173.451 32.56C173.803 31.696 174.267 30.912 174.843 30.208C175.419 29.472 176.091 28.848 176.859 28.336C177.627 27.824 178.427 27.472 179.259 27.28C179.611 27.376 180.075 27.664 180.651 28.144C181.259 28.592 181.851 29.104 182.427 29.68C183.003 30.256 183.515 30.848 183.963 31.456C184.411 32.032 184.683 32.512 184.779 32.896ZM168.939 54.784C169.707 54.464 170.427 54 171.099 53.392C171.803 52.784 172.411 52.096 172.923 51.328C173.435 50.56 173.835 49.744 174.123 48.88C174.443 48.016 174.603 47.168 174.603 46.336C173.963 46.432 173.259 46.736 172.491 47.248C171.723 47.728 171.003 48.32 170.331 49.024C169.659 49.696 169.099 50.4 168.651 51.136C168.203 51.872 167.979 52.512 167.979 53.056C167.979 53.76 168.299 54.336 168.939 54.784ZM201.372 32.896C201.34 33.504 201.228 34.144 201.036 34.816C200.876 35.456 200.668 36.048 200.412 36.592C200.156 37.104 199.884 37.536 199.596 37.888C199.308 38.24 199.036 38.416 198.78 38.416C198.428 38.384 198.22 38.144 198.156 37.696C198.156 37.6 198.188 37.456 198.252 37.264C198.348 37.04 198.444 36.8 198.54 36.544C198.636 36.288 198.716 36.032 198.78 35.776C198.876 35.52 198.924 35.296 198.924 35.104C198.924 34.656 198.812 34.288 198.588 34C198.396 33.68 198.124 33.52 197.772 33.52C196.492 33.52 195.516 34.32 194.844 35.92C194.172 37.52 193.836 39.872 193.836 42.976C193.836 43.296 193.852 43.488 193.884 43.552C194.556 43.52 195.148 43.504 195.66 43.504C196.204 43.472 196.732 43.456 197.244 43.456C197.276 43.52 197.292 43.648 197.292 43.84C197.292 44.128 197.228 44.336 197.1 44.464C196.364 44.624 195.772 44.768 195.324 44.896C194.908 44.992 194.588 45.088 194.364 45.184C194.14 45.28 193.996 45.392 193.932 45.52C193.9 45.616 193.884 45.76 193.884 45.952C193.884 46.208 193.884 46.464 193.884 46.72C193.916 46.976 193.932 47.296 193.932 47.68C193.932 50.368 193.196 52.528 191.724 54.16C190.284 55.792 188.268 56.736 185.676 56.992C185.228 56.96 184.764 56.832 184.284 56.608C183.804 56.384 183.34 56.096 182.892 55.744C182.476 55.392 182.108 54.992 181.788 54.544C181.468 54.128 181.244 53.696 181.116 53.248C181.116 52.032 181.372 50.88 181.884 49.792C182.396 48.672 183.084 47.696 183.948 46.864C184.844 46 185.884 45.312 187.068 44.8C188.284 44.256 189.596 43.936 191.004 43.84C191.004 43.04 190.924 42.256 190.764 41.488C190.604 40.72 190.428 39.984 190.236 39.28C190.076 38.544 189.916 37.84 189.756 37.168C189.596 36.464 189.516 35.776 189.516 35.104C189.516 34.24 189.692 33.392 190.044 32.56C190.396 31.696 190.86 30.912 191.436 30.208C192.012 29.472 192.684 28.848 193.452 28.336C194.22 27.824 195.02 27.472 195.852 27.28C196.204 27.376 196.668 27.664 197.244 28.144C197.852 28.592 198.444 29.104 199.02 29.68C199.596 30.256 200.108 30.848 200.556 31.456C201.004 32.032 201.276 32.512 201.372 32.896ZM185.532 54.784C186.3 54.464 187.02 54 187.692 53.392C188.396 52.784 189.004 52.096 189.516 51.328C190.028 50.56 190.428 49.744 190.716 48.88C191.036 48.016 191.196 47.168 191.196 46.336C190.556 46.432 189.852 46.736 189.084 47.248C188.316 47.728 187.596 48.32 186.924 49.024C186.252 49.696 185.692 50.4 185.244 51.136C184.796 51.872 184.572 52.512 184.572 53.056C184.572 53.76 184.892 54.336 185.532 54.784Z" fill="white"/>
</g>
<defs>
<filter id="filter0_d" x="1.09801" y="12.16" width="204.274" height="52.832" filterUnits="userSpaceOnUse" color-interpolation-filters="sRGB">
<feFlood flood-opacity="0" result="BackgroundImageFix"/>
<feColorMatrix in="SourceAlpha" type="matrix" values="0 0 0 0 0 0 0 0 0 0 0 0 0 0 0 0 0 0 127 0"/>
<feOffset dy="4"/>
<feGaussianBlur stdDeviation="2"/>
<feColorMatrix type="matrix" values="0 0 0 0 0 0 0 0 0 0 0 0 0 0 0 0 0 0 0.25 0"/>
<feBlend mode="normal" in2="BackgroundImageFix" result="effect1_dropShadow"/>
<feBlend mode="normal" in="SourceGraphic" in2="effect1_dropShadow" result="shape"/>
</filter>
</defs>
</svg>
