<svg width="326" height="78" viewBox="0 0 326 78" fill="none" xmlns="http://www.w3.org/2000/svg">
<g filter="url(#filter0_d)">
<path d="M10.8388 55.648C9.01475 55.104 7.78275 54.576 7.14275 54.064C6.50275 53.584 6.18275 52.912 6.18275 52.048C6.18275 51.088 6.40675 49.744 6.85475 48.016C7.30275 46.256 7.87875 44.304 8.58275 42.16C9.31875 40.016 10.1508 37.776 11.0788 35.44C12.0068 33.104 12.9508 30.864 13.9108 28.72C14.8708 26.576 15.7988 24.624 16.6948 22.864C17.6228 21.072 18.4388 19.68 19.1428 18.688L18.8068 16.672C19.2548 16.672 19.8788 16.784 20.6788 17.008C21.4788 17.232 22.2788 17.504 23.0788 17.824C23.9108 18.144 24.6308 18.48 25.2388 18.832C25.8788 19.152 26.2308 19.424 26.2948 19.648C26.1348 20.416 26.0068 21.584 25.9108 23.152C25.8148 24.688 25.7668 26.336 25.7668 28.096C25.7668 31.584 25.8948 35.008 26.1508 38.368C26.4388 41.696 27.0788 45.088 28.0708 48.544C28.5828 45.984 29.1267 43.44 29.7028 40.912C30.3108 38.352 30.9348 35.92 31.5748 33.616C32.2148 31.28 32.8548 29.12 33.4948 27.136C34.1348 25.152 34.7428 23.424 35.3188 21.952C35.9268 20.448 36.4868 19.28 36.9988 18.448C37.5108 17.584 37.9748 17.12 38.3908 17.056C38.7428 17.12 39.1268 17.264 39.5428 17.488C39.9588 17.68 40.3588 17.92 40.7428 18.208C41.1268 18.496 41.4788 18.816 41.7988 19.168C42.1188 19.52 42.3748 19.872 42.5668 20.224C41.5428 20.64 40.5188 21.616 39.4948 23.152C38.5028 24.688 37.5428 26.56 36.6148 28.768C35.7188 30.944 34.8708 33.312 34.0708 35.872C33.3028 38.432 32.6148 40.96 32.0068 43.456C31.4308 45.92 30.9668 48.208 30.6148 50.32C30.2948 52.432 30.1188 54.128 30.0868 55.408C30.0868 55.472 30.1028 55.52 30.1348 55.552C30.0388 55.584 29.9268 55.6 29.7988 55.6C29.7028 55.6 29.6068 55.6 29.5108 55.6C28.0388 55.6 26.7268 55.408 25.5748 55.024C24.4548 54.672 23.7188 54.16 23.3668 53.488C22.6948 50.8 22.1348 48.208 21.6868 45.712C21.2388 43.216 20.8548 40.72 20.5348 38.224C20.2468 35.728 20.0068 33.216 19.8148 30.688C19.6548 28.128 19.5268 25.456 19.4308 22.672C18.8228 23.632 18.1828 24.896 17.5108 26.464C16.8388 28 16.1828 29.696 15.5428 31.552C14.9028 33.408 14.2788 35.36 13.6708 37.408C13.0948 39.456 12.5828 41.456 12.1348 43.408C11.6868 45.36 11.3348 47.216 11.0788 48.976C10.8228 50.704 10.6948 52.208 10.6948 53.488C10.6948 54.16 10.6948 54.64 10.6948 54.928C10.7268 55.216 10.7748 55.456 10.8388 55.648ZM55.0119 32.128C54.8839 34.112 54.5319 35.824 53.9559 37.264C53.3799 38.672 52.5479 39.92 51.4599 41.008C50.4039 42.064 49.1079 43.024 47.5719 43.888C46.0359 44.752 44.2439 45.584 42.1959 46.384C42.1959 46.576 42.1799 46.784 42.1479 47.008C42.1479 47.2 42.1479 47.408 42.1479 47.632C42.1479 48.048 42.1799 48.48 42.2439 48.928C42.3079 49.376 42.4199 49.792 42.5799 50.176C42.7399 50.56 42.9639 50.88 43.2519 51.136C43.5399 51.36 43.9079 51.472 44.3559 51.472C45.2199 51.472 46.0679 51.28 46.8999 50.896C47.7319 50.512 48.5159 50.048 49.2519 49.504C50.0199 48.928 50.7239 48.32 51.3639 47.68C52.0359 47.008 52.6279 46.4 53.1399 45.856C53.4599 46.144 53.7319 46.416 53.9559 46.672C52.5159 48.592 50.9319 50.192 49.2039 51.472C47.5079 52.72 45.8919 53.52 44.3559 53.872C42.1479 53.616 40.4199 52.816 39.1719 51.472C37.9559 50.096 37.3479 48.448 37.3479 46.528C37.3479 45.216 37.5239 43.888 37.8759 42.544C38.2599 41.168 38.7719 39.856 39.4119 38.608C40.0839 37.328 40.8519 36.128 41.7159 35.008C42.6119 33.888 43.5559 32.912 44.5479 32.08C45.5719 31.248 46.6119 30.592 47.6679 30.112C48.7559 29.632 49.8279 29.392 50.8839 29.392C52.3559 29.584 53.7319 30.496 55.0119 32.128ZM51.6999 33.712C50.8359 33.84 49.9399 34.192 49.0119 34.768C48.0839 35.344 47.2039 36.112 46.3719 37.072C45.5719 38.032 44.8359 39.152 44.1639 40.432C43.4919 41.712 42.9639 43.088 42.5799 44.56C45.1399 43.28 47.2679 41.712 48.9639 39.856C50.6599 37.968 51.5719 35.92 51.6999 33.712ZM59.738 33.616C59.578 33.424 59.434 33.024 59.306 32.416C59.178 31.776 59.114 31.232 59.114 30.784C59.946 30.848 60.746 30.912 61.514 30.976C62.282 31.008 62.986 31.04 63.626 31.072C64.106 30.112 64.618 29.168 65.162 28.24C65.738 27.28 66.282 26.416 66.794 25.648C67.338 24.848 67.834 24.176 68.282 23.632C68.762 23.088 69.13 22.736 69.386 22.576C69.706 22.576 70.106 22.64 70.586 22.768C71.098 22.864 71.61 23.008 72.122 23.2C72.634 23.36 73.098 23.536 73.514 23.728C73.93 23.92 74.218 24.112 74.378 24.304C73.418 25.52 72.586 26.656 71.882 27.712C71.21 28.736 70.474 29.92 69.674 31.264C70.314 31.264 70.954 31.248 71.594 31.216C72.266 31.184 72.938 31.136 73.61 31.072C73.77 31.232 73.898 31.44 73.994 31.696C74.09 31.92 74.138 32.16 74.138 32.416C72.57 32.992 70.666 33.312 68.426 33.376C67.626 34.912 66.906 36.448 66.266 37.984C65.658 39.488 65.13 40.944 64.682 42.352C64.266 43.76 63.93 45.088 63.674 46.336C63.45 47.584 63.338 48.704 63.338 49.696C63.338 51.104 63.866 51.888 64.922 52.048C65.882 51.92 66.794 51.68 67.658 51.328C68.522 50.976 69.29 50.528 69.962 49.984C70.154 50.272 70.266 50.512 70.298 50.704C70.106 50.992 69.77 51.328 69.29 51.712C68.842 52.096 68.346 52.464 67.802 52.816C67.258 53.2 66.73 53.52 66.218 53.776C65.706 54.032 65.322 54.176 65.066 54.208C64.266 54.176 63.466 54 62.666 53.68C61.866 53.36 61.13 52.96 60.458 52.48C59.818 52 59.29 51.472 58.874 50.896C58.458 50.288 58.25 49.696 58.25 49.12C58.25 48.352 58.346 47.392 58.538 46.24C58.762 45.056 59.066 43.776 59.45 42.4C59.834 41.024 60.282 39.584 60.794 38.08C61.306 36.576 61.866 35.088 62.474 33.616H59.738ZM73.733 48.928C73.733 47.52 74.069 45.552 74.741 43.024C75.413 40.464 76.357 37.488 77.573 34.096C79.557 28.688 81.413 24.192 83.141 20.608C84.901 16.992 86.613 14.176 88.277 12.16C88.661 12.224 89.125 12.384 89.669 12.64C90.245 12.896 90.805 13.184 91.349 13.504C91.893 13.792 92.373 14.096 92.789 14.416C93.237 14.736 93.525 14.992 93.653 15.184C91.157 18.128 88.965 21.296 87.077 24.688C85.189 28.08 83.461 31.968 81.893 36.352C80.549 40.128 79.525 43.536 78.821 46.576C78.117 49.584 77.765 52.096 77.765 54.112C77.765 54.656 77.765 54.992 77.765 55.12C77.765 55.248 77.781 55.376 77.813 55.504C77.365 55.44 76.981 55.328 76.661 55.168C76.341 55.008 76.133 54.816 76.037 54.592C75.973 54.432 75.797 54.192 75.509 53.872C75.221 53.584 74.965 53.36 74.741 53.2C74.453 53.008 74.213 52.512 74.021 51.712C73.829 50.88 73.733 49.952 73.733 48.928ZM85.1728 48.784C85.1728 48.496 85.1888 48.144 85.2208 47.728C85.2848 47.28 85.3808 46.704 85.5088 46C85.6368 45.264 85.7968 44.384 85.9888 43.36C86.2128 42.336 86.4848 41.104 86.8047 39.664C86.8688 39.344 87.0128 38.832 87.2368 38.128C87.4608 37.424 87.7488 36.688 88.1008 35.92C88.4848 35.12 88.9328 34.352 89.4448 33.616C89.9888 32.88 90.6288 32.336 91.3648 31.984C91.9088 32.112 92.6288 32.448 93.5248 32.992C94.4208 33.504 95.1888 34.224 95.8288 35.152C95.0928 35.984 94.4688 36.816 93.9568 37.648C93.4768 38.48 93.0288 39.344 92.6128 40.24C92.2288 41.136 91.8608 42.064 91.5088 43.024C91.1888 43.984 90.8208 44.992 90.4048 46.048C90.0528 46.944 89.7328 47.872 89.4448 48.832C89.1568 49.76 88.9968 50.576 88.9648 51.28C88.9648 51.856 88.9488 52.256 88.9168 52.48C88.9168 52.736 88.8368 52.864 88.6768 52.864C88.5488 52.864 88.2928 52.784 87.9088 52.624C87.5248 52.464 87.1248 52.224 86.7088 51.904C86.3248 51.552 85.9728 51.12 85.6528 50.608C85.3328 50.096 85.1728 49.488 85.1728 48.784ZM94.3408 27.952C94.3408 27.76 94.3888 27.472 94.4848 27.088C94.3248 26.928 94.1808 26.688 94.0528 26.368C93.9568 26.048 93.9088 25.76 93.9088 25.504C93.9088 25.216 93.9408 24.832 94.0048 24.352C94.1008 23.84 94.2128 23.296 94.3408 22.72C94.4688 22.144 94.6288 21.552 94.8208 20.944C95.0128 20.304 95.2048 19.728 95.3968 19.216C95.7808 19.216 96.2448 19.328 96.7888 19.552C97.3648 19.744 97.9408 20.016 98.5168 20.368C99.0928 20.688 99.6208 21.056 100.101 21.472C100.581 21.856 100.949 22.224 101.205 22.576C100.853 22.928 100.389 23.424 99.8128 24.064C99.2368 24.672 98.6768 25.328 98.1328 26.032C97.5888 26.704 97.0928 27.344 96.6448 27.952C96.1968 28.56 95.9088 28.992 95.7808 29.248C95.3968 29.184 95.0608 29.024 94.7728 28.768C94.4848 28.48 94.3408 28.208 94.3408 27.952ZM98.7804 65.872C97.9804 65.552 97.5004 64.944 97.3404 64.048C97.2124 63.184 96.6684 62.48 95.7084 61.936C95.9644 60.304 96.2524 58.656 96.5724 56.992C96.8924 55.328 97.2924 53.44 97.7724 51.328C98.2844 49.184 98.9084 46.704 99.6444 43.888C100.412 41.04 101.372 37.6 102.524 33.568C101.468 33.568 100.636 33.584 100.028 33.616C99.4204 33.648 98.8284 33.712 98.2524 33.808C98.1244 33.68 98.0124 33.504 97.9164 33.28C97.8524 33.056 97.8204 32.848 97.8204 32.656C98.1404 32.528 98.7964 32.368 99.7884 32.176C100.78 31.952 101.868 31.76 103.052 31.6C103.82 29.168 104.7 26.992 105.692 25.072C106.684 23.12 107.756 21.456 108.908 20.08C110.06 18.704 111.276 17.648 112.556 16.912C113.836 16.176 115.132 15.808 116.444 15.808C116.828 15.808 117.196 15.84 117.548 15.904C117.9 15.936 118.172 15.952 118.364 15.952C118.652 15.728 119.036 15.536 119.516 15.376C119.996 15.184 120.412 15.088 120.764 15.088C121.148 15.088 121.644 15.296 122.252 15.712C121.996 16.16 121.724 16.768 121.436 17.536C121.148 18.304 120.908 19.056 120.716 19.792C119.916 22.16 119.068 23.696 118.172 24.4C117.82 24.4 117.628 23.936 117.596 23.008C117.564 22.336 117.468 21.68 117.308 21.04C117.18 20.752 117.084 20.496 117.02 20.272C116.988 20.048 116.972 19.76 116.972 19.408C116.972 19.216 116.988 18.992 117.02 18.736C117.052 18.448 117.116 17.984 117.212 17.344C116.668 17.344 116.06 17.68 115.388 18.352C114.748 19.024 114.06 19.984 113.324 21.232C112.62 22.448 111.9 23.904 111.164 25.6C110.428 27.296 109.724 29.168 109.052 31.216L113.084 31.072C113.244 31.232 113.372 31.6 113.468 32.176C113.596 32.72 113.676 33.296 113.708 33.904L108.428 33.616C107.212 37.232 106.076 40.688 105.02 43.984C103.964 47.28 103.02 50.32 102.188 53.104C101.356 55.888 100.636 58.368 100.028 60.544C99.4524 62.752 99.0364 64.528 98.7804 65.872ZM130.595 44.56C129.859 46.896 129.123 49.024 128.387 50.944C127.651 52.864 126.867 54.624 126.035 56.224C125.203 57.856 124.307 59.344 123.347 60.688C122.387 62.064 121.331 63.36 120.179 64.576C118.707 66.112 117.187 67.28 115.619 68.08C114.051 68.912 112.483 69.328 110.915 69.328C110.115 69.328 109.315 69.232 108.515 69.04C107.747 68.88 107.027 68.64 106.355 68.32C105.651 68.032 105.043 67.68 104.531 67.264C103.987 66.88 103.603 66.464 103.379 66.016C103.379 65.632 103.603 65.296 104.051 65.008C104.435 65.36 104.755 65.632 105.011 65.824C105.267 66.016 105.523 66.176 105.779 66.304C106.003 66.432 106.259 66.512 106.547 66.544C106.803 66.576 107.107 66.592 107.459 66.592C109.283 66.592 111.059 66.048 112.787 64.96C114.547 63.904 116.195 62.384 117.731 60.4C119.299 58.448 120.723 56.064 122.003 53.248C123.283 50.464 124.371 47.344 125.267 43.888C124.851 44.528 124.339 45.312 123.731 46.24C123.123 47.168 122.451 48.096 121.715 49.024C120.979 49.92 120.211 50.736 119.411 51.472C118.643 52.208 117.891 52.704 117.155 52.96C116.643 52.928 116.099 52.816 115.523 52.624C114.979 52.464 114.451 52.224 113.939 51.904C113.459 51.584 113.027 51.2 112.643 50.752C112.259 50.304 112.003 49.792 111.875 49.216C111.875 48.288 111.907 47.552 111.971 47.008C112.035 46.432 112.147 45.808 112.307 45.136C112.595 43.92 113.011 42.544 113.555 41.008C114.131 39.472 114.787 37.968 115.523 36.496C116.291 34.992 117.123 33.6 118.019 32.32C118.947 31.008 119.907 29.984 120.899 29.248C121.155 29.248 121.475 29.28 121.859 29.344C122.243 29.376 122.643 29.456 123.059 29.584C123.475 29.712 123.875 29.872 124.259 30.064C124.643 30.224 124.979 30.448 125.267 30.736C124.915 31.056 124.147 32.128 122.963 33.952C121.779 35.776 120.467 38.4 119.027 41.824C118.867 42.176 118.675 42.688 118.451 43.36C118.227 44.032 118.003 44.736 117.779 45.472C117.587 46.208 117.411 46.928 117.251 47.632C117.091 48.336 117.011 48.896 117.011 49.312C117.011 49.568 117.043 49.76 117.107 49.888C117.203 50.016 117.283 50.112 117.347 50.176C117.923 50.08 118.691 49.616 119.651 48.784C120.611 47.92 121.699 46.592 122.915 44.8C123.683 43.648 124.387 42.512 125.027 41.392C125.667 40.24 126.291 39.088 126.899 37.936C127.539 36.784 128.195 35.6 128.867 34.384C129.539 33.168 130.259 31.92 131.027 30.64C131.443 30.64 131.891 30.688 132.371 30.784C132.851 30.88 133.315 31.008 133.763 31.168C134.211 31.296 134.595 31.456 134.915 31.648C135.267 31.808 135.523 31.984 135.683 32.176C134.691 34.288 133.763 36.352 132.899 38.368C132.035 40.384 131.267 42.448 130.595 44.56ZM155.116 31.984C156.14 31.984 156.94 32.272 157.516 32.848C158.124 33.424 158.428 34.224 158.428 35.248C158.428 35.504 158.412 35.776 158.38 36.064C158.348 36.32 158.284 36.544 158.188 36.736C157.772 36.672 157.308 36.624 156.796 36.592C156.284 36.528 155.676 36.496 154.972 36.496C153.532 36.496 152.092 36.624 150.652 36.88C149.212 37.136 147.836 37.344 146.524 37.504C145.084 40.896 143.9 44.08 142.972 47.056C142.044 50.032 141.324 52.976 140.812 55.888C139.724 55.632 138.764 55.168 137.932 54.496C137.1 53.824 136.316 52.88 135.58 51.664C135.804 51.152 136.076 50.544 136.396 49.84C136.716 49.104 137.1 48.192 137.548 47.104C137.996 45.984 138.524 44.64 139.132 43.072C139.772 41.472 140.524 39.568 141.388 37.36C140.044 36.912 139.164 36.128 138.748 35.008C138.908 34.848 139.356 34.672 140.092 34.48C140.828 34.256 141.724 34.016 142.78 33.76C143.26 32.512 143.676 31.408 144.028 30.448C144.38 29.456 144.7 28.528 144.988 27.664C145.276 26.768 145.532 25.904 145.756 25.072C146.012 24.208 146.236 23.296 146.428 22.336H146.188C144.972 22.336 143.98 22.048 143.212 21.472C142.476 20.896 142.108 20.144 142.108 19.216C142.108 18.96 142.14 18.656 142.204 18.304C142.3 17.952 142.412 17.648 142.54 17.392C143.148 17.488 143.74 17.552 144.316 17.584C144.924 17.616 145.708 17.632 146.668 17.632C148.684 17.632 150.572 17.584 152.332 17.488C154.092 17.36 155.676 17.232 157.084 17.104C158.524 16.976 159.756 16.864 160.78 16.768C161.804 16.64 162.588 16.576 163.132 16.576C163.868 16.576 164.524 16.96 165.1 17.728C165.676 18.496 166.124 19.584 166.444 20.992C165.42 20.896 164.588 20.832 163.948 20.8C163.34 20.768 162.796 20.752 162.316 20.752C160.684 20.752 159.18 20.832 157.804 20.992C156.46 21.12 155.18 21.28 153.964 21.472C153.772 21.76 153.548 22.128 153.292 22.576C153.068 23.024 152.764 23.664 152.38 24.496C151.996 25.296 151.5 26.352 150.892 27.664C150.316 28.976 149.58 30.64 148.684 32.656C149.932 32.464 151.116 32.304 152.236 32.176C153.388 32.048 154.348 31.984 155.116 31.984ZM173.462 50.944C172.854 50.432 172.438 49.792 172.214 49.024C172.022 48.256 171.926 47.6 171.926 47.056C171.926 46.384 172.006 45.808 172.166 45.328C172.038 45.328 171.75 45.584 171.302 46.096C170.854 46.608 170.358 47.216 169.814 47.92C169.302 48.624 168.79 49.312 168.278 49.984C167.766 50.656 167.382 51.152 167.126 51.472C166.71 51.92 166.31 52.272 165.926 52.528C165.574 52.784 165.286 52.928 165.062 52.96C164.55 52.928 164.006 52.816 163.43 52.624C162.886 52.464 162.358 52.224 161.846 51.904C161.366 51.584 160.934 51.2 160.55 50.752C160.198 50.304 159.958 49.792 159.83 49.216C159.83 48.32 159.846 47.584 159.878 47.008C159.942 46.432 160.054 45.808 160.214 45.136C160.502 43.92 160.918 42.544 161.462 41.008C162.038 39.472 162.694 37.968 163.43 36.496C164.166 34.992 164.982 33.6 165.878 32.32C166.806 31.008 167.782 29.984 168.806 29.248C169.094 29.248 169.43 29.28 169.814 29.344C170.198 29.376 170.582 29.456 170.966 29.584C171.382 29.712 171.766 29.872 172.118 30.064C172.502 30.224 172.822 30.448 173.078 30.736C172.79 31.056 172.054 32.128 170.87 33.952C169.718 35.776 168.422 38.4 166.982 41.824C166.822 42.176 166.63 42.688 166.406 43.36C166.182 44.032 165.958 44.736 165.734 45.472C165.51 46.208 165.318 46.928 165.158 47.632C165.03 48.336 164.966 48.896 164.966 49.312C164.966 49.568 164.998 49.76 165.062 49.888C165.158 50.016 165.238 50.112 165.302 50.176C165.782 49.984 166.39 49.456 167.126 48.592C167.862 47.728 168.886 46.4 170.198 44.608C170.518 44.16 170.886 43.648 171.302 43.072C171.75 42.496 172.198 41.888 172.646 41.248C173.094 40.576 173.51 39.888 173.894 39.184C174.31 38.48 174.646 37.776 174.902 37.072C175.03 36.688 175.19 36.24 175.382 35.728C175.606 35.184 175.862 34.624 176.15 34.048C176.47 33.472 176.822 32.896 177.206 32.32C177.622 31.712 178.102 31.152 178.646 30.64C179.062 30.64 179.51 30.688 179.99 30.784C180.47 30.88 180.918 31.008 181.334 31.168C181.782 31.296 182.166 31.456 182.486 31.648C182.806 31.808 183.046 31.984 183.206 32.176C182.63 33.584 181.99 34.976 181.286 36.352C180.582 37.728 179.926 39.088 179.318 40.432C178.71 41.744 178.198 43.056 177.782 44.368C177.366 45.68 177.158 46.96 177.158 48.208C177.158 48.88 177.206 49.472 177.302 49.984C177.43 50.464 177.558 50.88 177.686 51.232C177.814 51.552 177.926 51.824 178.022 52.048C178.15 52.272 178.214 52.464 178.214 52.624C178.214 52.656 178.182 52.704 178.118 52.768C178.086 52.8 178.054 52.816 178.022 52.816C177.798 52.816 177.51 52.768 177.158 52.672C176.806 52.576 176.406 52.432 175.958 52.24C175.542 52.08 175.11 51.888 174.662 51.664C174.246 51.44 173.846 51.2 173.462 50.944ZM191.901 28.72C192.733 28.976 193.517 29.552 194.253 30.448C194.989 31.312 195.533 32.272 195.885 33.328C195.533 34.192 194.989 35.232 194.253 36.448C193.517 37.664 192.781 38.912 192.045 40.192C191.309 41.44 190.637 42.64 190.029 43.792C189.453 44.912 189.117 45.84 189.021 46.576C189.533 46.032 190.093 45.408 190.701 44.704C191.341 43.968 191.949 43.248 192.525 42.544C193.133 41.808 193.693 41.152 194.205 40.576C194.717 39.968 195.117 39.52 195.405 39.232C196.013 38.592 196.733 37.856 197.565 37.024C198.397 36.16 199.261 35.36 200.157 34.624C201.085 33.856 202.013 33.216 202.941 32.704C203.869 32.16 204.717 31.888 205.485 31.888C206.317 31.888 207.005 32.176 207.549 32.752C208.125 33.296 208.573 33.872 208.893 34.48C208.893 34.544 208.765 34.64 208.509 34.768C208.285 34.864 207.949 35.168 207.501 35.68C207.053 36.256 206.541 37.056 205.965 38.08C205.421 39.072 204.877 40.16 204.333 41.344C203.821 42.496 203.389 43.68 203.037 44.896C202.685 46.112 202.509 47.216 202.509 48.208C202.509 49.008 202.605 49.52 202.797 49.744C203.021 49.968 203.325 50.08 203.709 50.08C204.061 50.08 204.429 50 204.813 49.84C205.197 49.68 205.501 49.6 205.725 49.6C205.853 49.664 205.949 49.808 206.013 50.032C206.109 50.224 206.157 50.4 206.157 50.56C205.901 50.784 205.597 51.008 205.245 51.232C204.893 51.456 204.525 51.664 204.141 51.856C203.757 52.048 203.373 52.208 202.989 52.336C202.637 52.464 202.317 52.528 202.029 52.528C201.101 52.528 200.333 52.384 199.725 52.096C199.149 51.84 198.685 51.488 198.333 51.04C198.013 50.592 197.789 50.064 197.661 49.456C197.533 48.816 197.469 48.144 197.469 47.44C197.469 47.056 197.501 46.624 197.565 46.144C197.629 45.664 197.757 45.104 197.949 44.464C198.141 43.792 198.413 43.008 198.765 42.112C199.117 41.184 199.565 40.08 200.109 38.8C200.045 38.8 199.613 39.024 198.813 39.472C198.013 39.92 197.149 40.608 196.221 41.536C194.717 42.976 193.357 44.4 192.141 45.808C190.957 47.216 189.741 48.784 188.493 50.512C187.789 51.504 187.165 52.336 186.621 53.008C186.109 53.712 185.661 54.176 185.277 54.4C184.605 54.016 184.109 53.472 183.789 52.768C183.469 52.096 183.229 51.392 183.069 50.656C183.069 50.048 183.149 49.28 183.309 48.352C183.501 47.424 183.741 46.4 184.029 45.28C184.349 44.128 184.733 42.928 185.181 41.68C185.629 40.432 186.125 39.184 186.669 37.936C187.885 35.12 188.989 32.912 189.981 31.312C191.005 29.712 191.645 28.848 191.901 28.72ZM210.335 43.552C210.335 41.728 210.703 39.968 211.439 38.272C212.207 36.544 213.199 35.024 214.415 33.712C215.663 32.368 217.071 31.296 218.639 30.496C220.239 29.664 221.887 29.248 223.583 29.248C225.247 29.248 226.527 29.664 227.423 30.496C228.319 31.328 228.767 32.512 228.767 34.048C228.767 34.784 228.655 35.504 228.431 36.208C228.239 36.88 227.967 37.488 227.615 38.032C227.295 38.576 226.911 39.024 226.463 39.376C226.015 39.696 225.567 39.856 225.119 39.856C224.735 39.856 224.335 39.744 223.919 39.52C223.535 39.264 223.215 38.944 222.959 38.56C225.103 36.608 226.175 34.832 226.175 33.232C226.175 32.304 225.807 31.84 225.071 31.84C224.431 31.84 223.631 32.144 222.671 32.752C221.711 33.36 220.783 34.16 219.887 35.152C218.511 36.688 217.455 38.4 216.719 40.288C216.015 42.144 215.663 44.096 215.663 46.144C215.663 48.736 216.239 50.288 217.391 50.8C217.871 50.736 218.431 50.592 219.071 50.368C219.711 50.144 220.399 49.856 221.135 49.504C221.871 49.12 222.623 48.688 223.391 48.208C224.191 47.728 224.959 47.216 225.695 46.672C225.823 46.768 225.935 46.912 226.031 47.104C226.127 47.296 226.175 47.472 226.175 47.632C225.631 48.304 225.007 48.96 224.303 49.6C223.599 50.24 222.863 50.832 222.095 51.376C221.327 51.888 220.575 52.32 219.839 52.672C219.135 53.056 218.511 53.296 217.967 53.392C216.911 53.296 215.919 52.96 214.991 52.384C214.063 51.84 213.247 51.12 212.543 50.224C211.871 49.328 211.327 48.304 210.911 47.152C210.527 46 210.335 44.8 210.335 43.552ZM232.847 33.616C232.687 33.424 232.543 33.024 232.415 32.416C232.287 31.776 232.223 31.232 232.223 30.784C233.055 30.848 233.855 30.912 234.623 30.976C235.391 31.008 236.095 31.04 236.735 31.072C237.215 30.112 237.727 29.168 238.271 28.24C238.847 27.28 239.391 26.416 239.903 25.648C240.447 24.848 240.943 24.176 241.391 23.632C241.871 23.088 242.239 22.736 242.495 22.576C242.815 22.576 243.215 22.64 243.695 22.768C244.207 22.864 244.719 23.008 245.231 23.2C245.743 23.36 246.207 23.536 246.623 23.728C247.039 23.92 247.327 24.112 247.487 24.304C246.527 25.52 245.695 26.656 244.991 27.712C244.319 28.736 243.583 29.92 242.783 31.264C243.423 31.264 244.063 31.248 244.703 31.216C245.375 31.184 246.047 31.136 246.719 31.072C246.879 31.232 247.007 31.44 247.103 31.696C247.199 31.92 247.247 32.16 247.247 32.416C245.679 32.992 243.775 33.312 241.535 33.376C240.735 34.912 240.015 36.448 239.375 37.984C238.767 39.488 238.239 40.944 237.791 42.352C237.375 43.76 237.039 45.088 236.783 46.336C236.559 47.584 236.447 48.704 236.447 49.696C236.447 51.104 236.975 51.888 238.031 52.048C238.991 51.92 239.903 51.68 240.767 51.328C241.631 50.976 242.399 50.528 243.071 49.984C243.263 50.272 243.375 50.512 243.407 50.704C243.215 50.992 242.879 51.328 242.399 51.712C241.951 52.096 241.455 52.464 240.911 52.816C240.367 53.2 239.839 53.52 239.327 53.776C238.815 54.032 238.431 54.176 238.175 54.208C237.375 54.176 236.575 54 235.775 53.68C234.975 53.36 234.239 52.96 233.567 52.48C232.927 52 232.399 51.472 231.983 50.896C231.567 50.288 231.359 49.696 231.359 49.12C231.359 48.352 231.455 47.392 231.647 46.24C231.871 45.056 232.175 43.776 232.559 42.4C232.943 41.024 233.391 39.584 233.903 38.08C234.415 36.576 234.975 35.088 235.583 33.616H232.847ZM246.938 48.784C246.938 48.496 246.954 48.144 246.986 47.728C247.05 47.28 247.146 46.704 247.274 46C247.402 45.264 247.562 44.384 247.754 43.36C247.978 42.336 248.25 41.104 248.57 39.664C248.634 39.344 248.778 38.832 249.002 38.128C249.226 37.424 249.514 36.688 249.866 35.92C250.25 35.12 250.698 34.352 251.21 33.616C251.754 32.88 252.394 32.336 253.13 31.984C253.674 32.112 254.394 32.448 255.29 32.992C256.186 33.504 256.954 34.224 257.594 35.152C256.858 35.984 256.234 36.816 255.722 37.648C255.242 38.48 254.794 39.344 254.378 40.24C253.994 41.136 253.626 42.064 253.274 43.024C252.954 43.984 252.586 44.992 252.17 46.048C251.818 46.944 251.498 47.872 251.21 48.832C250.922 49.76 250.762 50.576 250.73 51.28C250.73 51.856 250.714 52.256 250.682 52.48C250.682 52.736 250.602 52.864 250.442 52.864C250.314 52.864 250.058 52.784 249.674 52.624C249.29 52.464 248.89 52.224 248.474 51.904C248.09 51.552 247.738 51.12 247.418 50.608C247.098 50.096 246.938 49.488 246.938 48.784ZM256.106 27.952C256.106 27.76 256.154 27.472 256.25 27.088C256.09 26.928 255.946 26.688 255.818 26.368C255.722 26.048 255.674 25.76 255.674 25.504C255.674 25.216 255.706 24.832 255.77 24.352C255.866 23.84 255.978 23.296 256.106 22.72C256.234 22.144 256.394 21.552 256.586 20.944C256.778 20.304 256.97 19.728 257.162 19.216C257.546 19.216 258.01 19.328 258.554 19.552C259.13 19.744 259.706 20.016 260.282 20.368C260.858 20.688 261.386 21.056 261.866 21.472C262.346 21.856 262.714 22.224 262.97 22.576C262.618 22.928 262.154 23.424 261.578 24.064C261.002 24.672 260.442 25.328 259.898 26.032C259.354 26.704 258.858 27.344 258.41 27.952C257.962 28.56 257.674 28.992 257.546 29.248C257.162 29.184 256.826 29.024 256.538 28.768C256.25 28.48 256.106 28.208 256.106 27.952ZM263.898 53.68C262.074 53.488 260.618 52.688 259.53 51.28C258.442 49.872 257.898 48.08 257.898 45.904C257.898 44.624 258.09 43.296 258.474 41.92C258.858 40.544 259.402 39.216 260.106 37.936C260.81 36.624 261.642 35.392 262.602 34.24C263.562 33.088 264.602 32.096 265.722 31.264C267.482 29.952 269.13 29.296 270.666 29.296C271.69 29.84 272.698 30.976 273.69 32.704C273.85 32.704 273.994 32.704 274.122 32.704C274.25 32.672 274.394 32.656 274.554 32.656C276.25 32.656 277.098 34.16 277.098 37.168C277.098 39.184 276.762 41.104 276.09 42.928C275.45 44.72 274.538 46.352 273.354 47.824C272.202 49.296 270.81 50.544 269.178 51.568C267.578 52.56 265.818 53.264 263.898 53.68ZM266.346 38.56C265.802 39.296 265.29 40.096 264.81 40.96C264.33 41.824 263.914 42.704 263.562 43.6C263.21 44.464 262.938 45.312 262.746 46.144C262.554 46.944 262.458 47.664 262.458 48.304C262.458 49.072 262.586 49.808 262.842 50.512C263.098 51.216 263.386 51.616 263.706 51.712C265.146 51.392 266.458 50.8 267.642 49.936C268.858 49.04 269.898 47.936 270.762 46.624C271.658 45.312 272.346 43.824 272.826 42.16C273.338 40.496 273.594 38.72 273.594 36.832C273.594 36 273.546 35.344 273.45 34.864C273.354 34.384 273.194 33.968 272.97 33.616C271.562 34.032 270.298 34.704 269.178 35.632C268.09 36.56 267.146 37.536 266.346 38.56ZM287.198 28.72C288.03 28.976 288.814 29.552 289.55 30.448C290.286 31.312 290.83 32.272 291.182 33.328C290.83 34.192 290.286 35.232 289.55 36.448C288.814 37.664 288.078 38.912 287.342 40.192C286.606 41.44 285.934 42.64 285.326 43.792C284.75 44.912 284.414 45.84 284.318 46.576C284.83 46.032 285.39 45.408 285.998 44.704C286.638 43.968 287.246 43.248 287.822 42.544C288.43 41.808 288.99 41.152 289.502 40.576C290.014 39.968 290.414 39.52 290.702 39.232C291.31 38.592 292.03 37.856 292.862 37.024C293.694 36.16 294.558 35.36 295.454 34.624C296.382 33.856 297.31 33.216 298.238 32.704C299.166 32.16 300.014 31.888 300.782 31.888C301.614 31.888 302.302 32.176 302.846 32.752C303.422 33.296 303.87 33.872 304.19 34.48C304.19 34.544 304.062 34.64 303.806 34.768C303.582 34.864 303.246 35.168 302.798 35.68C302.35 36.256 301.838 37.056 301.262 38.08C300.718 39.072 300.174 40.16 299.63 41.344C299.118 42.496 298.686 43.68 298.334 44.896C297.982 46.112 297.806 47.216 297.806 48.208C297.806 49.008 297.902 49.52 298.094 49.744C298.318 49.968 298.622 50.08 299.006 50.08C299.358 50.08 299.726 50 300.11 49.84C300.494 49.68 300.798 49.6 301.022 49.6C301.15 49.664 301.246 49.808 301.31 50.032C301.406 50.224 301.454 50.4 301.454 50.56C301.198 50.784 300.894 51.008 300.542 51.232C300.19 51.456 299.822 51.664 299.438 51.856C299.054 52.048 298.67 52.208 298.286 52.336C297.934 52.464 297.614 52.528 297.326 52.528C296.398 52.528 295.63 52.384 295.022 52.096C294.446 51.84 293.982 51.488 293.63 51.04C293.31 50.592 293.086 50.064 292.958 49.456C292.83 48.816 292.766 48.144 292.766 47.44C292.766 47.056 292.798 46.624 292.862 46.144C292.926 45.664 293.054 45.104 293.246 44.464C293.438 43.792 293.71 43.008 294.062 42.112C294.414 41.184 294.862 40.08 295.406 38.8C295.342 38.8 294.91 39.024 294.11 39.472C293.31 39.92 292.446 40.608 291.518 41.536C290.014 42.976 288.654 44.4 287.438 45.808C286.254 47.216 285.038 48.784 283.79 50.512C283.086 51.504 282.462 52.336 281.918 53.008C281.406 53.712 280.958 54.176 280.574 54.4C279.902 54.016 279.406 53.472 279.086 52.768C278.766 52.096 278.526 51.392 278.366 50.656C278.366 50.048 278.446 49.28 278.606 48.352C278.798 47.424 279.038 46.4 279.326 45.28C279.646 44.128 280.03 42.928 280.478 41.68C280.926 40.432 281.422 39.184 281.966 37.936C283.182 35.12 284.286 32.912 285.278 31.312C286.302 29.712 286.942 28.848 287.198 28.72ZM321.904 32.896C321.872 33.504 321.76 34.144 321.568 34.816C321.408 35.456 321.2 36.048 320.944 36.592C320.688 37.104 320.416 37.536 320.128 37.888C319.84 38.24 319.568 38.416 319.312 38.416C318.96 38.384 318.752 38.144 318.688 37.696C318.688 37.6 318.72 37.456 318.784 37.264C318.88 37.04 318.976 36.8 319.072 36.544C319.168 36.288 319.248 36.032 319.312 35.776C319.408 35.52 319.456 35.296 319.456 35.104C319.456 34.656 319.344 34.288 319.12 34C318.928 33.68 318.656 33.52 318.304 33.52C317.024 33.52 316.048 34.32 315.376 35.92C314.704 37.52 314.368 39.872 314.368 42.976C314.368 43.296 314.384 43.488 314.416 43.552C315.088 43.52 315.68 43.504 316.192 43.504C316.736 43.472 317.264 43.456 317.776 43.456C317.808 43.52 317.824 43.648 317.824 43.84C317.824 44.128 317.76 44.336 317.632 44.464C316.896 44.624 316.304 44.768 315.856 44.896C315.44 44.992 315.12 45.088 314.896 45.184C314.672 45.28 314.528 45.392 314.464 45.52C314.432 45.616 314.416 45.76 314.416 45.952C314.416 46.208 314.416 46.464 314.416 46.72C314.448 46.976 314.464 47.296 314.464 47.68C314.464 50.368 313.728 52.528 312.256 54.16C310.816 55.792 308.8 56.736 306.208 56.992C305.76 56.96 305.296 56.832 304.816 56.608C304.336 56.384 303.872 56.096 303.424 55.744C303.008 55.392 302.64 54.992 302.32 54.544C302 54.128 301.776 53.696 301.648 53.248C301.648 52.032 301.904 50.88 302.416 49.792C302.928 48.672 303.616 47.696 304.48 46.864C305.376 46 306.416 45.312 307.6 44.8C308.816 44.256 310.128 43.936 311.536 43.84C311.536 43.04 311.456 42.256 311.296 41.488C311.136 40.72 310.96 39.984 310.768 39.28C310.608 38.544 310.448 37.84 310.288 37.168C310.128 36.464 310.048 35.776 310.048 35.104C310.048 34.24 310.224 33.392 310.576 32.56C310.928 31.696 311.392 30.912 311.968 30.208C312.544 29.472 313.216 28.848 313.984 28.336C314.752 27.824 315.552 27.472 316.384 27.28C316.736 27.376 317.2 27.664 317.776 28.144C318.384 28.592 318.976 29.104 319.552 29.68C320.128 30.256 320.64 30.848 321.088 31.456C321.536 32.032 321.808 32.512 321.904 32.896ZM306.064 54.784C306.832 54.464 307.552 54 308.224 53.392C308.928 52.784 309.536 52.096 310.048 51.328C310.56 50.56 310.96 49.744 311.248 48.88C311.568 48.016 311.728 47.168 311.728 46.336C311.088 46.432 310.384 46.736 309.616 47.248C308.848 47.728 308.128 48.32 307.456 49.024C306.784 49.696 306.224 50.4 305.776 51.136C305.328 51.872 305.104 52.512 305.104 53.056C305.104 53.76 305.424 54.336 306.064 54.784Z" fill="white"/>
</g>
<defs>
<filter id="filter0_d" x="2.18275" y="12.16" width="323.721" height="65.168" filterUnits="userSpaceOnUse" color-interpolation-filters="sRGB">
<feFlood flood-opacity="0" result="BackgroundImageFix"/>
<feColorMatrix in="SourceAlpha" type="matrix" values="0 0 0 0 0 0 0 0 0 0 0 0 0 0 0 0 0 0 127 0"/>
<feOffset dy="4"/>
<feGaussianBlur stdDeviation="2"/>
<feColorMatrix type="matrix" values="0 0 0 0 0 0 0 0 0 0 0 0 0 0 0 0 0 0 0.25 0"/>
<feBlend mode="normal" in2="BackgroundImageFix" result="effect1_dropShadow"/>
<feBlend mode="normal" in="SourceGraphic" in2="effect1_dropShadow" result="shape"/>
</filter>
</defs>
</svg>
